PathFileType	4	(X/Y/Z)	C:/Users/opensim2020/Desktop/walking_exp_matlab/subject06_walking12_straigt_04.trc																																																																																																																																														
DataRate	CameraRate	NumFrames	NumMarkers	Units	OrigDataRate	OrigDataStartFrame	OrigNumFrames																																																																																																																																										
100	100	4	48	mm	100	2766	181																																																																																																																																										
Frame#	Time	LFHD			RFHD			LBHD			RBHD			C7			T10			CLAV			STRN			RBAK			LSHO			LUPA			LELB			LFRM			LWRA			LWRB			LFIN			RSHO			RUPA			RELB			RFRM			RWRA			RWRB			RFIN			LASI			RASI			LPSI			RPSI			LTHI			LKNE			LTIB			LANK			LHEE			LTOE			RTHI			RKNE			RTIB			RANK			RHEE			RTOE			*39			*40			*41			*42			*43			*44			*45			*46			*47		
		X1	Y1	Z1	X2	Y2	Z2	X3	Y3	Z3	X4	Y4	Z4	X5	Y5	Z5	X6	Y6	Z6	X7	Y7	Z7	X8	Y8	Z8	X9	Y9	Z9	X10	Y10	Z10	X11	Y11	Z11	X12	Y12	Z12	X13	Y13	Z13	X14	Y14	Z14	X15	Y15	Z15	X16	Y16	Z16	X17	Y17	Z17	X18	Y18	Z18	X19	Y19	Z19	X20	Y20	Z20	X21	Y21	Z21	X22	Y22	Z22	X23	Y23	Z23	X24	Y24	Z24	X25	Y25	Z25	X26	Y26	Z26	X27	Y27	Z27	X28	Y28	Z28	X29	Y29	Z29	X30	Y30	Z30	X31	Y31	Z31	X32	Y32	Z32	X33	Y33	Z33	X34	Y34	Z34	X35	Y35	Z35	X36	Y36	Z36	X37	Y37	Z37	X38	Y38	Z38	X39	Y39	Z39	X40	Y40	Z40	X41	Y41	Z41	X42	Y42	Z42	X43	Y43	Z43	X44	Y44	Z44	X45	Y45	Z45	X46	Y46	Z46	X47	Y47	Z47	X48	Y48	Z48
																																																																																																																																																	
1	0	-1513.03455	1667.97998	1112.35107	-1381.97229	1652.87878	1115.82434	-1518.35339	1613.91785	1245.80286	-1389.99011	1604.74365	1247.74023	-1461.29773	1454.0752	1250.10217	-1461.36877	1124.88708	1282.85583	-1463.12781	1377.0907	1139.84253	-1472.1189	1202.13	1101.09558	-1385.59558	1283.36572	1323.43176	-1623.00342	1410.58752	1200.91052	-1709.75623	1214.32593	1183.12231	-1730.6095	1104.03943	1167.28613	-1753.65454	963.65332	1114.54163	-1702.93408	853.51648	1053.23364	-1758.39734	845.89862	1097.41211	-1753.58118	774.24854	1042.28784	-1301.15942	1407.38257	1184.86731	-1218.39929	1207.72144	1229.39758	-1211.29993	1084.70715	1225.47681	-1197.97778	964.01239	1217.42578	-1232.50745	821.86774	1168.07336	-1192.00012	825.57831	1221.61206	-1191.80273	747.66058	1189.51526	-1571.50146	972.10223	1096.61597	-1351.81262	968.87952	1107.14075	-1547.45508	996.55347	1255.67163	-1379.32642	988.01501	1256.72375	-1637.01563	659.83337	1162.07947	-1618.0365	495.1091	1173.50415	-1608.29285	242.40381	1224.8584	-1564.68542	70.36124	1240.55005	-1519.38184	56.70152	1280.62659	-1563.72229	41.41328	1095.5282	-1292.79102	642.67944	1080.91602	-1310.87146	527.97986	1027.52368	-1324.57507	312.87592	1165.51953	-1374.44495	166.26509	1275.49475	-1423.36743	162.27409	1318.9762	-1367.86523	63.33307	1163.34961	-1455.05188	1705.07617	1213.86572	NaN	NaN	NaN	NaN	NaN	NaN	NaN	NaN	NaN	NaN	NaN	NaN	NaN	NaN	NaN	NaN	NaN	NaN	NaN	NaN	NaN	NaN	NaN	NaN
2	0.01	-1513.36072	1667.89612	1102.526	-1382.33557	1652.65466	1106.18372	-1519.01807	1613.90137	1235.97021	-1390.65637	1604.59949	1238.16516	-1462.40747	1454.00989	1240.58911	-1462.62537	1124.90198	1273.35596	-1463.87024	1377.00952	1130.20874	-1473.04712	1202.00049	1091.39209	-1387.45837	1283.27954	1314.10449	-1623.69434	1410.92139	1190.67871	-1711.26392	1215.56396	1169.66553	-1732.56152	1105.66138	1151.16138	-1755.53125	966.6391	1095.01477	-1704.58496	857.77374	1031.75244	-1760.36914	849.13513	1075.13159	-1755.43018	779.07776	1018.33002	-1302.00305	1407.07715	1175.96021	-1219.65393	1207.72852	1222.25916	-1212.81018	1084.755	1219.82153	-1198.94495	963.97174	1214.2572	-1232.55273	820.41577	1167.79578	-1192.33777	825.61853	1221.51111	-1192.11865	746.75946	1191.27271	-1572.55896	971.48511	1087.82141	-1353.06799	969.10144	1097.36584	-1548.05579	996.42877	1246.5708	-1379.88196	988.50195	1247.16785	-1637.18225	659.1842	1155.76477	-1617.90112	494.57019	1168.42932	-1608.13892	242.34859	1222.60303	-1564.51477	70.53834	1240.26257	-1519.26257	57.0452	1280.68018	-1563.56433	41.27152	1095.1239	-1293.70996	644.4433	1068.26477	-1312.45154	530.17505	1014.20197	-1325.18286	308.7388	1144.72278	-1374.56616	156.70346	1247.60107	-1423.56763	150.32904	1290.81445	-1367.31348	60.01657	1130.00049	-1455.52722	1704.98279	1204.05042	NaN	NaN	NaN	NaN	NaN	NaN	NaN	NaN	NaN	NaN	NaN	NaN	NaN	NaN	NaN	NaN	NaN	NaN	NaN	NaN	NaN	NaN	NaN	NaN
3	0.02	-1513.68274	1667.62671	1092.71423	-1382.73499	1652.25635	1096.47632	-1519.6001	1613.75793	1226.15881	-1391.33899	1604.4292	1228.59509	-1463.33484	1453.70813	1230.89758	-1463.7301	1124.79688	1263.87292	-1464.56604	1376.7417	1120.54309	-1473.99414	1201.76794	1081.6521	-1389.82935	1283.36938	1305.71179	-1624.32874	1411.05859	1180.50391	-1712.66223	1216.64355	1156.25537	-1734.45984	1107.18811	1135.44092	-1757.29761	969.57611	1075.83008	-1705.99451	862.13458	1010.43237	-1762.28442	852.57031	1053.03564	-1756.79187	783.94556	994.46271	-1302.84888	1406.61096	1166.93542	-1220.93384	1207.59985	1214.99573	-1213.94543	1084.81934	1214.02661	-1199.74817	963.95874	1210.9856	-1232.66028	819.23517	1167.6084	-1192.54712	825.72699	1221.20776	-1192.16809	746.1106	1192.94019	-1573.62915	970.6391	1079.02698	-1354.31995	969.11053	1087.63257	-1548.53394	996.1485	1237.49731	-1380.26892	988.67188	1237.06104	-1637.07031	658.45538	1149.42273	-1617.6936	493.91574	1163.31702	-1607.92139	242.30084	1220.30688	-1564.14038	70.63423	1239.82129	-1518.88306	57.2652	1280.25549	-1563.48877	41.17368	1094.94824	-1294.63477	645.9715	1055.75427	-1313.92371	532.01361	1001.42053	-1325.72083	304.66238	1124.26318	-1374.43091	147.10175	1219.04993	-1423.51941	137.98219	1261.66858	-1365.91516	57.08492	1096.39319	-1456.0282	1704.74158	1194.3136	NaN	NaN	NaN	NaN	NaN	NaN	NaN	NaN	NaN	NaN	NaN	NaN	NaN	NaN	NaN	NaN	NaN	NaN	NaN	NaN	NaN	NaN	NaN	NaN
4	0.03	-1514.00342	1667.27344	1082.84692	-1383.05322	1651.74475	1086.84619	-1520.18799	1613.47693	1216.38062	-1391.92261	1603.96033	1219.01587	-1464.24036	1453.29089	1221.18201	-1464.65674	1124.44836	1254.20105	-1465.21631	1376.30554	1110.86169	-1474.92212	1201.35229	1071.83545	-1391.06189	1282.78577	1295.8075	-1624.92944	1410.9801	1170.37158	-1713.84998	1217.57532	1142.90234	-1736.18164	1108.42688	1120.078	-1758.96729	972.4212	1057.08435	-1707.26892	866.6795	989.27478	-1763.9071	856.11346	1031.08508	-1757.81714	788.90497	970.84747	-1303.61047	1405.97913	1157.76428	-1222.16602	1207.35693	1207.77686	-1215.07104	1084.72803	1208.25073	-1200.47351	963.83435	1207.54431	-1232.56567	817.98627	1166.96008	-1192.53345	825.84363	1220.9729	-1192.08765	745.39557	1194.29004	-1574.72925	969.61108	1070.30444	-1355.4906	968.92963	1077.87292	-1548.89661	995.68799	1228.47986	-1380.6405	988.60065	1227.32751	-1637.00647	657.58441	1143.01062	-1617.49829	493.26154	1158.11414	-1607.61877	242.19946	1217.91809	-1563.73865	70.78361	1239.49426	-1518.50061	57.57125	1280.03503	-1563.22253	40.93803	1094.52075	-1295.14514	647.22974	1043.74548	-1315.2854	533.39655	989.18439	-1325.98755	300.58487	1104.13062	-1374.02527	137.54349	1189.974	-1423.29285	125.72256	1231.66785	-1363.99719	54.55212	1062.495	-1456.40601	1704.36462	1184.56372	NaN	NaN	NaN	NaN	NaN	NaN	NaN	NaN	NaN	NaN	NaN	NaN	NaN	NaN	NaN	NaN	NaN	NaN	NaN	NaN	NaN	NaN	NaN	NaN
